REM DIRINDEX 1\2\4,1\2\5,1\2\6,1\2\7,1\3\8,1\3\9
REM DIRNAME folder01,folder02,folder03,folder04,folder05,folder06,folder07,folder08,folder09
TITLE ""
FILE "Disc2Track09.mp3" MP3
  TRACK 01 AUDIO
    TITLE "0:"
    INDEX 01 00:00:00
  TRACK 02 AUDIO
    TITLE "4:cjc037_1202"
    INDEX 01 00:00:05
  TRACK 03 AUDIO
    TITLE "0:"
    INDEX 01 00:01:52
  TRACK 04 AUDIO
    TITLE "4:cjc037_1203"
    INDEX 01 00:02:53
  TRACK 05 AUDIO
    TITLE "0:"
    INDEX 01 00:04:48
  TRACK 06 AUDIO
    TITLE "5:cjc037_1204"
    INDEX 01 00:05:20
  TRACK 07 AUDIO
    TITLE "0:"
    INDEX 01 00:10:66
  TRACK 08 AUDIO
    TITLE "6:cjc037_1205"
    INDEX 01 00:14:27
  TRACK 09 AUDIO
    TITLE "0:"
    INDEX 01 00:18:64
  TRACK 10 AUDIO
    TITLE "7:cjc037_1206"
    INDEX 01 00:22:25
  TRACK 11 AUDIO
    TITLE "0:"
    INDEX 01 00:26:20
  TRACK 12 AUDIO
    TITLE "4:cjc037_1207"
    INDEX 01 00:28:55
  TRACK 13 AUDIO
    TITLE "0:"
    INDEX 01 00:30:36
  TRACK 14 AUDIO
    TITLE "5:cjc037_1208"
    INDEX 01 00:31:14
  TRACK 15 AUDIO
    TITLE "0:"
    INDEX 01 00:35:10
  TRACK 16 AUDIO
    TITLE "6:cjc037_1209"
    INDEX 01 00:38:43
  TRACK 17 AUDIO
    TITLE "0:"
    INDEX 01 00:41:67
  TRACK 18 AUDIO
    TITLE "7:cjc037_1210"
    INDEX 01 00:45:28
  TRACK 19 AUDIO
    TITLE "0:"
    INDEX 01 00:48:04
  TRACK 20 AUDIO
    TITLE "4:cjc037_1211"
    INDEX 01 00:50:39
  TRACK 21 AUDIO
    TITLE "0:"
    INDEX 01 00:52:41
  TRACK 22 AUDIO
    TITLE "5:cjc037_1212"
    INDEX 01 00:53:15
  TRACK 23 AUDIO
    TITLE "0:"
    INDEX 01 00:56:35
  TRACK 24 AUDIO
    TITLE "6:cjc037_1213"
    INDEX 01 00:59:69
  TRACK 25 AUDIO
    TITLE "0:"
    INDEX 01 01:02:34
  TRACK 26 AUDIO
    TITLE "7:cjc037_1214"
    INDEX 01 01:05:68
  TRACK 27 AUDIO
    TITLE "0:"
    INDEX 01 01:08:21
  TRACK 28 AUDIO
    TITLE "4:cjc037_1215"
    INDEX 01 01:10:55
  TRACK 29 AUDIO
    TITLE "0:"
    INDEX 01 01:12:46
  TRACK 30 AUDIO
    TITLE "5:cjc037_1216"
    INDEX 01 01:13:26
  TRACK 31 AUDIO
    TITLE "0:"
    INDEX 01 01:18:60
  TRACK 32 AUDIO
    TITLE "6:cjc037_1217"
    INDEX 01 01:22:23
  TRACK 33 AUDIO
    TITLE "0:"
    INDEX 01 01:26:30
  TRACK 34 AUDIO
    TITLE "7:cjc037_1218"
    INDEX 01 01:29:66
  TRACK 35 AUDIO
    TITLE "0:"
    INDEX 01 01:33:15
  TRACK 36 AUDIO
    TITLE "4:cjc037_1219"
    INDEX 01 01:35:53
  TRACK 37 AUDIO
    TITLE "0:"
    INDEX 01 01:37:42
  TRACK 38 AUDIO
    TITLE "5:cjc037_1220"
    INDEX 01 01:38:22
  TRACK 39 AUDIO
    TITLE "0:"
    INDEX 01 01:43:25
  TRACK 40 AUDIO
    TITLE "6:cjc037_1221"
    INDEX 01 01:46:59
  TRACK 41 AUDIO
    TITLE "0:"
    INDEX 01 01:50:62
  TRACK 42 AUDIO
    TITLE "7:cjc037_1222"
    INDEX 01 01:54:23
  TRACK 43 AUDIO
    TITLE "0:"
    INDEX 01 01:57:37
  TRACK 44 AUDIO
    TITLE "4:cjc037_1223"
    INDEX 01 01:59:69
  TRACK 45 AUDIO
    TITLE "0:"
    INDEX 01 02:01:70
  TRACK 46 AUDIO
    TITLE "5:cjc037_1224"
    INDEX 01 02:02:48
  TRACK 47 AUDIO
    TITLE "0:"
    INDEX 01 02:06:18
  TRACK 48 AUDIO
    TITLE "6:cjc037_1225"
    INDEX 01 02:09:54
  TRACK 49 AUDIO
    TITLE "0:"
    INDEX 01 02:13:10
  TRACK 50 AUDIO
    TITLE "7:cjc037_1226"
    INDEX 01 02:16:44
  TRACK 51 AUDIO
    TITLE "0:"
    INDEX 01 02:19:33
  TRACK 52 AUDIO
    TITLE "4:cjc037_1227"
    INDEX 01 02:21:67
  TRACK 53 AUDIO
    TITLE "0:"
    INDEX 01 02:23:13
  TRACK 54 AUDIO
    TITLE "5:cjc037_1228"
    INDEX 01 02:23:66
  TRACK 55 AUDIO
    TITLE "0:"
    INDEX 01 02:28:18
  TRACK 56 AUDIO
    TITLE "6:cjc037_1229"
    INDEX 01 02:31:51
  TRACK 57 AUDIO
    TITLE "0:"
    INDEX 01 02:34:30
  TRACK 58 AUDIO
    TITLE "7:cjc037_1230"
    INDEX 01 02:37:74
  TRACK 59 AUDIO
    TITLE "0:"
    INDEX 01 02:40:19
